<svg width="128" height="128" viewBox="0 0 128 128" fill="none" xmlns="http://www.w3.org/2000/svg">
<rect width="128" height="128" fill="#333333"/>
<path d="M116.461 63.5974H63.7071C54.3861 63.5974 45.2506 66.2029 37.3319 71.1198L22.0039 80.6372" stroke="white" stroke-opacity="0.4" stroke-width="4" stroke-dasharray="6 6"/>
<path d="M116.461 63.5975H63.7071C54.3861 63.5975 45.2506 60.992 37.3319 56.0751L22.0039 46.5576" stroke="white" stroke-opacity="0.4" stroke-width="4" stroke-dasharray="6 6"/>
<path fill-rule="evenodd" clip-rule="evenodd" d="M34.8339 62.9903L43.5391 74.725L90.4325 25.19C74.1182 28.7841 59.2576 37.1906 47.773 49.3223L34.8339 62.9903Z" fill="white"/>
<g filter="url(#filter0_d_118_15)">
<path fill-rule="evenodd" clip-rule="evenodd" d="M34.0827 64.0078L46.9989 79.3035C57.7793 92.0699 72.1262 101.326 88.2011 105.887L44.0256 53.2661L36.0575 61.6592L34.0827 64.0078Z" fill="white"/>
</g>
<circle cx="42.3983" cy="64.6707" r="2.68344" fill="#4A4A4A"/>
<defs>
<filter id="filter0_d_118_15" x="16.0825" y="28.2661" width="94.1187" height="92.6204" filterUnits="userSpaceOnUse" color-interpolation-filters="sRGB">
<feFlood flood-opacity="0" result="BackgroundImageFix"/>
<feColorMatrix in="SourceAlpha" type="matrix" values="0 0 0 0 0 0 0 0 0 0 0 0 0 0 0 0 0 0 127 0" result="hardAlpha"/>
<feOffset dx="2" dy="-5"/>
<feGaussianBlur stdDeviation="10"/>
<feComposite in2="hardAlpha" operator="out"/>
<feColorMatrix type="matrix" values="0 0 0 0 0 0 0 0 0 0 0 0 0 0 0 0 0 0 0.45 0"/>
<feBlend mode="normal" in2="BackgroundImageFix" result="effect1_dropShadow_118_15"/>
<feBlend mode="normal" in="SourceGraphic" in2="effect1_dropShadow_118_15" result="shape"/>
</filter>
</defs>
</svg>
