<svg width="71" height="71" viewBox="0 0 71 71" fill="none" xmlns="http://www.w3.org/2000/svg">
<g clip-path="url(#clip0_110_70)">
<path d="M53.8467 35.8378C53.7952 36.3823 53.579 36.8982 53.2269 37.3168C52.8748 37.7354 52.4036 38.0368 51.876 38.181L35.4212 42.6754L27.9557 58.6093C27.7904 58.9627 27.5502 59.276 27.2518 59.5273C26.9533 59.7785 26.6037 59.9618 26.2273 60.0644C25.9263 60.1466 25.6093 60.1769 25.2877 60.1502C24.1663 60.063 23.2205 59.2747 22.8954 58.0842L12.0448 18.359C11.7658 17.3377 12.1104 16.2444 12.9252 15.5706C13.7454 14.8988 14.8809 14.7643 15.8266 15.2293L52.2591 33.1885C53.3667 33.6547 53.8611 34.7407 53.8467 35.8378Z" fill="#56CCF2"/>
<path opacity="0.4" d="M48.2009 50.2072C49.8179 52.0844 49.6075 54.9178 47.7303 56.5353C45.8522 58.1535 43.0187 57.9426 41.401 56.065L33.4674 46.8468L35.3943 42.5759L40.4903 41.184L48.2009 50.2072Z" fill="#56CCF2"/>
</g>
<defs>
<clipPath id="clip0_110_70">
<rect width="57.4381" height="57.4381" fill="white" transform="translate(0 15.1343) rotate(-15.2771)"/>
</clipPath>
</defs>
</svg>
